<svg version="1.1" id="Layer_1" xmlns="http://www.w3.org/2000/svg" xmlns:xlink="http://www.w3.org/1999/xlink" x="0px" y="0px"
	 width="100%" viewBox="0 0 512 512" enable-background="new 0 0 512 512" xml:space="preserve">
<path fill="#1976D2" opacity="1.000000" stroke="none" 
	d="
M257.000000,513.000000 
	C189.645233,513.000000 122.290474,513.000000 54.300652,512.636536 
	C36.134113,509.075958 21.448925,500.965393 12.129881,485.534180 
	C7.371957,477.655670 4.644963,468.550659 1.000002,460.000000 
	C1.000000,324.978577 1.000000,189.957138 1.363452,54.300648 
	C4.924092,36.134140 13.034602,21.448919 28.465813,12.129877 
	C36.344341,7.371965 45.449352,4.644961 54.000000,1.000000 
	C189.021439,1.000000 324.042877,1.000000 459.699371,1.363461 
	C477.865906,4.924081 492.551086,13.034629 501.870178,28.465809 
	C506.628082,36.344334 509.355072,45.449348 513.000000,53.999996 
	C513.000000,189.021439 513.000000,324.042877 512.636536,459.699341 
	C509.075897,477.865875 500.965332,492.551086 485.534180,501.870148 
	C477.655701,506.628113 468.550659,509.355072 460.000000,513.000000 
	C424.645233,513.000000 389.290466,513.000000 353.467926,512.531372 
	C353.000153,453.804535 353.000153,395.546387 353.000153,337.000122 
	C367.977905,337.000122 382.291351,336.866547 396.598907,337.096985 
	C400.040039,337.152405 401.524963,336.021149 402.740448,332.916565 
	C410.745026,312.470947 418.950989,292.104187 427.087402,271.710144 
	C428.980804,266.964294 430.859192,262.212494 432.971008,256.892822 
	C405.998871,256.892822 379.728058,256.892822 353.000275,256.892822 
	C353.000275,255.052948 353.000275,253.597046 353.000275,252.141159 
	C353.000275,233.308121 352.979004,214.475037 353.007507,195.642044 
	C353.027679,182.311279 357.435547,177.511093 370.895813,177.158463 
	C384.386627,176.805069 397.892517,177.028793 411.391815,177.000702 
	C413.157684,176.997025 414.923584,177.000198 416.622131,177.000198 
	C416.622131,149.972580 416.622131,123.585518 416.622131,96.999985 
	C395.921783,96.999985 375.598846,96.971725 355.276001,97.005394 
	C299.044647,97.098557 257.092743,139.078186 257.004578,195.336182 
	C256.975342,214.002518 256.999847,232.668930 256.999786,251.335312 
	C256.999786,253.106613 256.999786,254.877914 256.999786,257.178406 
	C235.347641,257.178406 214.288849,257.178406 193.240219,257.178406 
	C193.240219,283.986206 193.240219,310.254913 193.240219,337.060547 
	C214.531631,337.060547 235.590637,337.060547 256.481262,337.060547 
	C256.748535,337.898407 256.929962,338.201721 256.930145,338.505157 
	C256.961823,396.670105 256.980682,454.835052 257.000000,513.000000 
z"/>
<path fill="#FAFAFA" opacity="1.000000" stroke="none" 
	d="
M257.468658,513.000000 
	C256.980682,454.835052 256.961823,396.670105 256.930145,338.505157 
	C256.929962,338.201721 256.748535,337.898407 256.481262,337.060547 
	C235.590637,337.060547 214.531631,337.060547 193.240219,337.060547 
	C193.240219,310.254913 193.240219,283.986206 193.240219,257.178406 
	C214.288849,257.178406 235.347641,257.178406 256.999786,257.178406 
	C256.999786,254.877914 256.999786,253.106613 256.999786,251.335312 
	C256.999847,232.668930 256.975342,214.002518 257.004578,195.336182 
	C257.092743,139.078186 299.044647,97.098557 355.276001,97.005394 
	C375.598846,96.971725 395.921783,96.999985 416.622131,96.999985 
	C416.622131,123.585518 416.622131,149.972580 416.622131,177.000198 
	C414.923584,177.000198 413.157684,176.997025 411.391815,177.000702 
	C397.892517,177.028793 384.386627,176.805069 370.895813,177.158463 
	C357.435547,177.511093 353.027679,182.311279 353.007507,195.642044 
	C352.979004,214.475037 353.000275,233.308121 353.000275,252.141159 
	C353.000275,253.597046 353.000275,255.052948 353.000275,256.892822 
	C379.728058,256.892822 405.998871,256.892822 432.971008,256.892822 
	C430.859192,262.212494 428.980804,266.964294 427.087402,271.710144 
	C418.950989,292.104187 410.745026,312.470947 402.740448,332.916565 
	C401.524963,336.021149 400.040039,337.152405 396.598907,337.096985 
	C382.291351,336.866547 367.977905,337.000122 353.000153,337.000122 
	C353.000153,395.546387 353.000153,453.804535 353.000061,512.531372 
	C321.312439,513.000000 289.624878,513.000000 257.468658,513.000000 
z"/>
<path fill="#FFFFFF" opacity="1.000000" stroke="none" 
	d="
M53.531342,1.000000 
	C45.449352,4.644961 36.344341,7.371965 28.465813,12.129877 
	C13.034602,21.448919 4.924092,36.134140 1.363452,53.832794 
	C1.000000,36.406563 1.000000,18.813124 1.000000,1.000000 
	C18.353609,1.000000 35.708145,1.000000 53.531342,1.000000 
z"/>
<path fill="#FFFFFF" opacity="1.000000" stroke="none" 
	d="
M513.000000,53.531338 
	C509.355072,45.449348 506.628082,36.344334 501.870178,28.465809 
	C492.551086,13.034629 477.865906,4.924081 460.167236,1.363461 
	C477.593445,1.000000 495.186890,1.000000 513.000000,1.000000 
	C513.000000,18.353611 513.000000,35.708145 513.000000,53.531338 
z"/>
<path fill="#FFFFFF" opacity="1.000000" stroke="none" 
	d="
M1.000002,460.468658 
	C4.644963,468.550659 7.371957,477.655670 12.129881,485.534180 
	C21.448925,500.965393 36.134113,509.075958 53.832802,512.636536 
	C36.406567,513.000000 18.813131,513.000000 1.000000,513.000000 
	C1.000000,495.646393 1.000000,478.291840 1.000002,460.468658 
z"/>
<path fill="#FFFFFF" opacity="1.000000" stroke="none" 
	d="
M460.468658,513.000000 
	C468.550659,509.355072 477.655701,506.628113 485.534180,501.870148 
	C500.965332,492.551086 509.075897,477.865875 512.636536,460.167206 
	C513.000000,477.593445 513.000000,495.186890 513.000000,513.000000 
	C495.646393,513.000000 478.291840,513.000000 460.468658,513.000000 
z"/>
</svg>